# Blender v2.80 (sub 53) OBJ File: 'grass.blend'
# www.blender.org
mtllib grass.mtl
o Cylinder.004
v 0.000546 -0.022924 0.020990
v 0.041213 0.254467 -0.388241
v 0.049436 0.139680 -0.169193
v 0.005785 0.165250 -0.145407
v -0.048344 0.155025 -0.154919
v -0.004693 0.129454 -0.178706
v 0.000395 -0.014370 -0.002962
v -0.256137 0.239966 0.299072
v -0.116997 0.196269 0.079803
v -0.086126 0.183945 0.124749
v -0.099426 0.148503 0.165882
v -0.130297 0.160827 0.120936
v 0.001418 -0.010031 0.001242
v 0.317213 0.376320 -0.085148
v 0.082117 0.230586 -0.023070
v 0.129115 0.203144 -0.035840
v 0.167308 0.183563 -0.000023
v 0.120310 0.211006 0.012747
v -0.014287 -0.009636 -0.001064
v 0.302107 0.072172 0.336251
v 0.090820 0.100377 0.203509
v 0.124229 0.120347 0.163383
v 0.169165 0.095244 0.141575
v 0.135756 0.075274 0.181700
v -0.004734 -0.010089 -0.001763
v 0.033130 0.496245 0.003830
v -0.054742 0.239767 0.006691
v 0.001025 0.240797 0.010418
v 0.031643 0.235347 0.056870
v -0.024125 0.234317 0.053143
v 0.005748 -0.017009 0.002452
v -0.371064 0.261892 -0.028848
v -0.132195 0.191270 -0.048459
v -0.113522 0.204124 0.002640
v -0.136230 0.189009 0.051434
v -0.154903 0.176155 0.000335
vt 0.375588 0.484000
vt 0.340794 0.518794
vt 0.340794 0.484000
vt 0.306000 0.518794
vt 0.306000 0.484000
vt 0.271206 0.518794
vt 0.271206 0.484000
vt 0.236412 0.518794
vt 0.236412 0.484000
vt 0.271206 0.449206
vt 0.306000 0.449206
vt 0.340794 0.449206
vt 0.375588 0.449206
vt 0.375588 0.484000
vt 0.340794 0.518794
vt 0.340794 0.484000
vt 0.306000 0.518794
vt 0.306000 0.484000
vt 0.271206 0.518794
vt 0.271206 0.484000
vt 0.236412 0.518794
vt 0.236412 0.484000
vt 0.271206 0.449206
vt 0.306000 0.449206
vt 0.340794 0.449206
vt 0.375588 0.449206
vt 0.178743 0.484000
vt 0.143372 0.519372
vt 0.143372 0.484000
vt 0.108000 0.519372
vt 0.108000 0.484000
vt 0.072628 0.519372
vt 0.072628 0.484000
vt 0.037257 0.519372
vt 0.037257 0.484000
vt 0.072628 0.448628
vt 0.108000 0.448628
vt 0.143372 0.448628
vt 0.178743 0.448628
vt 0.375588 0.484000
vt 0.340794 0.518794
vt 0.340794 0.484000
vt 0.306000 0.518794
vt 0.306000 0.484000
vt 0.271206 0.518794
vt 0.271206 0.484000
vt 0.236412 0.518794
vt 0.236412 0.484000
vt 0.271206 0.449206
vt 0.306000 0.449206
vt 0.340794 0.449206
vt 0.375588 0.449206
vt 0.178743 0.484000
vt 0.143372 0.519372
vt 0.143372 0.484000
vt 0.108000 0.519372
vt 0.108000 0.484000
vt 0.072628 0.519372
vt 0.072628 0.484000
vt 0.037257 0.519372
vt 0.037257 0.484000
vt 0.072628 0.448628
vt 0.108000 0.448628
vt 0.143372 0.448628
vt 0.178743 0.448628
vt 0.178743 0.484000
vt 0.143372 0.519372
vt 0.143372 0.484000
vt 0.108000 0.519372
vt 0.108000 0.484000
vt 0.072628 0.519372
vt 0.072628 0.484000
vt 0.037257 0.519372
vt 0.037257 0.484000
vt 0.072628 0.448628
vt 0.108000 0.448628
vt 0.143372 0.448628
vt 0.178743 0.448628
vn 0.6082 0.7123 0.3504
vn -0.2284 0.9242 0.3062
vn -0.6240 -0.6033 -0.4966
vn 0.2420 -0.8557 -0.4575
vn 0.2488 -0.7668 -0.5917
vn -0.6222 -0.6301 -0.4645
vn -0.2488 0.6455 0.7221
vn 0.6222 0.5088 0.5949
vn 0.3372 0.9411 0.0264
vn 0.7178 0.3956 0.5729
vn -0.4572 -0.8865 0.0709
vn -0.8398 -0.2464 -0.4838
vn -0.8266 -0.2657 -0.4962
vn -0.6700 -0.6912 0.2707
vn 0.9040 0.1326 0.4065
vn 0.7474 0.5581 -0.3603
vn -0.2589 0.0061 -0.9659
vn 0.3633 -0.5980 -0.7144
vn 0.3385 0.1472 0.9294
vn -0.2607 0.7026 0.6621
vn -0.5803 0.2722 0.7676
vn 0.1787 -0.1467 0.9729
vn 0.4924 -0.4269 -0.7585
vn -0.2665 -0.0080 -0.9638
vn -0.1086 0.9231 0.3690
vn 0.4134 0.8933 -0.1764
vn 0.2337 -0.9340 -0.2703
vn -0.3293 -0.8821 0.3368
vn -0.1950 -0.8185 0.5404
vn 0.5029 -0.8642 -0.0114
vn 0.0922 0.7419 -0.6641
vn -0.6058 0.7877 -0.1123
vn 0.0673 -0.0342 -0.9971
vn 0.8227 -0.1177 -0.5561
vn -0.0690 0.1991 0.9775
vn -0.7874 0.2759 0.5513
vn -0.8305 -0.1840 0.5258
vn -0.0609 -0.2234 0.9728
vn 0.8353 0.0075 -0.5497
vn 0.0657 0.0469 -0.9967
vn 0.2444 0.9155 -0.3196
vn 0.1621 0.9188 0.3600
vn -0.3857 -0.8515 0.3552
vn -0.2897 -0.8678 -0.4037
vn -0.6695 -0.5621 -0.4857
vn -0.7054 -0.5822 0.4042
vn 0.7692 0.4145 0.4864
vn 0.8051 0.4346 -0.4036
usemtl Material.001
s off
f 3/1/1 2/2/1 4/3/1
f 4/3/2 2/4/2 5/5/2
f 5/5/3 2/6/3 6/7/3
f 6/7/4 2/8/4 3/9/4
f 1/10/5 6/7/5 3/9/5
f 1/11/6 5/5/6 6/7/6
f 1/12/7 4/3/7 5/5/7
f 1/13/8 3/1/8 4/3/8
f 9/14/9 8/15/9 10/16/9
f 10/16/10 8/17/10 11/18/10
f 11/18/11 8/19/11 12/20/11
f 12/20/12 8/21/12 9/22/12
f 7/23/13 12/20/13 9/22/13
f 7/24/14 11/18/14 12/20/14
f 7/25/15 10/16/15 11/18/15
f 7/26/16 9/14/16 10/16/16
f 15/27/17 14/28/17 16/29/17
f 16/29/18 14/30/18 17/31/18
f 17/31/19 14/32/19 18/33/19
f 18/33/20 14/34/20 15/35/20
f 13/36/21 18/33/21 15/35/21
f 13/37/22 17/31/22 18/33/22
f 13/38/23 16/29/23 17/31/23
f 13/39/24 15/27/24 16/29/24
f 21/40/25 20/41/25 22/42/25
f 22/42/26 20/43/26 23/44/26
f 23/44/27 20/45/27 24/46/27
f 24/46/28 20/47/28 21/48/28
f 19/49/29 24/46/29 21/48/29
f 19/50/30 23/44/30 24/46/30
f 19/51/31 22/42/31 23/44/31
f 19/52/32 21/40/32 22/42/32
f 27/53/33 26/54/33 28/55/33
f 28/55/34 26/56/34 29/57/34
f 29/57/35 26/58/35 30/59/35
f 30/59/36 26/60/36 27/61/36
f 25/62/37 30/59/37 27/61/37
f 25/63/38 29/57/38 30/59/38
f 25/64/39 28/55/39 29/57/39
f 25/65/40 27/53/40 28/55/40
f 33/66/41 32/67/41 34/68/41
f 34/68/42 32/69/42 35/70/42
f 35/70/43 32/71/43 36/72/43
f 36/72/44 32/73/44 33/74/44
f 31/75/45 36/72/45 33/74/45
f 31/76/46 35/70/46 36/72/46
f 31/77/47 34/68/47 35/70/47
f 31/78/48 33/66/48 34/68/48
