# Blender v2.80 (sub 53) OBJ File: 'ground.blend'
# www.blender.org
mtllib ground.mtl
o Plane_Plane.001
v -50.057518 0.504598 50.047558
v 50.465221 0.163943 50.041801
v -50.037361 -0.383725 -49.804176
v 49.463615 0.019054 -50.091206
v -49.920773 -0.060843 -29.934946
v -50.439148 0.127619 -10.608695
v -50.179909 0.341120 9.952244
v -50.472630 0.012069 29.708105
v -29.888010 0.477879 50.176792
v -10.095162 0.082027 50.163109
v 9.819401 0.009529 50.471039
v 29.882750 0.685707 49.257435
v 50.192905 0.662749 29.566952
v 49.964996 0.294548 10.669783
v 50.547482 0.046991 -10.239961
v 49.868149 -0.018016 -29.502350
v 29.791794 -0.047026 -49.434601
v 9.887039 -0.298228 -49.891525
v -9.831836 0.066881 -50.023640
v -29.726711 -0.030712 -50.030750
v -30.141392 0.034201 30.308428
v -30.853424 -0.025781 10.394527
v -29.706728 -0.242221 -10.074887
v -29.799934 -0.200865 -30.120283
v -9.997772 0.328925 29.919460
v -9.768638 -0.243409 9.301034
v -9.538146 -0.444150 -10.518989
v -10.138264 -0.200016 -29.867992
v 10.042319 0.133286 29.912037
v 9.548219 -0.632864 10.453981
v 10.276541 0.125143 -10.020435
v 9.742226 0.359314 -30.031549
v 30.408081 0.145733 29.474768
v 29.612791 -0.481556 10.063449
v 30.435320 0.403815 -9.925889
v 29.647388 -0.356217 -30.000555
v -49.947105 0.162483 39.653141
v 39.967426 0.290872 50.519253
v 49.849903 -0.008690 -39.563408
v -39.718552 0.524692 -50.451714
v -49.537849 -0.064143 -39.745533
v -49.951145 -0.155880 -20.389248
v -50.020313 0.115252 0.095285
v -49.642597 -0.322712 19.872097
v -40.051659 0.089494 49.989998
v -19.904366 -0.402728 49.850441
v 0.387499 -0.036602 49.820644
v 19.749012 -0.158462 50.151451
v 50.049622 0.300944 39.891140
v 50.462414 0.478678 19.893118
v 49.482513 0.063554 -0.288004
v 50.273697 0.240237 -20.135206
v 40.265038 0.105835 -50.220592
v 20.072716 -0.077022 -50.031067
v 0.091684 0.255052 -50.133865
v -19.646336 0.197738 -49.400284
v -30.131186 0.472499 -39.928596
v -29.647949 0.002724 39.904587
v -29.936701 -0.460828 20.197460
v -30.402256 0.518514 -0.127967
v -29.981922 -0.030613 -19.805777
v -9.588495 -0.020535 -39.874397
v -10.236000 -0.191876 40.387730
v -10.002736 0.168817 19.671816
v -10.175832 -0.219533 -0.252002
v -9.958685 -0.206596 -20.131380
v 10.676348 0.267000 -40.232597
v 9.780524 -0.320691 39.709293
v 10.365232 0.073199 19.969709
v 10.117948 0.294657 0.108595
v 10.098486 -0.131192 -19.742069
v 29.663265 -0.433211 -39.890923
v 29.597881 -0.306411 39.977707
v 30.585325 0.009324 20.088787
v 29.748386 0.087598 0.374933
v 30.051479 0.068506 -20.346142
v -40.218021 -0.496352 30.268373
v -40.592186 0.022013 10.278751
v -39.841824 -0.047498 -10.301176
v -39.857494 0.423376 -30.035851
v -19.839125 -0.032648 29.935625
v -19.864363 0.197481 10.008333
v -19.521494 -0.476906 -9.793555
v -19.949774 -0.348523 -30.013832
v 0.292646 -0.294549 30.374279
v -0.275854 0.083136 10.371609
v 0.012491 0.015254 -9.932386
v 0.319924 -0.090618 -29.820812
v 19.890966 -0.209022 29.561224
v 20.149555 -0.091944 9.518637
v 20.106876 -0.096046 -9.459536
v 19.919607 -0.085756 -29.977142
v 40.419041 -0.043331 30.016830
v 40.309868 -0.220737 10.292430
v 40.118351 -0.350896 -9.970781
v 39.662994 -0.370806 -30.111170
v 39.596809 0.355768 -40.236279
v -40.237022 -0.612763 -39.681358
v -19.991522 0.164809 -40.696579
v 0.059527 -0.095013 -40.607868
v 19.938423 -0.098203 -39.881477
v -40.030609 -0.178037 39.484055
v -39.196693 -0.494614 20.746193
v -39.549068 0.296819 0.260121
v -40.293945 -0.546388 -19.946329
v -19.953087 0.114721 39.368534
v -19.511194 -0.022812 20.116573
v -19.680792 0.012341 0.266615
v -20.182667 -1.107056 -20.290720
v -0.551201 -0.008757 39.770992
v -0.108330 0.271215 19.949324
v 0.170108 -0.034514 0.163265
v -0.450418 0.448236 -19.788071
v 19.998142 -0.629344 40.429993
v 20.542885 -0.467462 19.913475
v 20.392509 0.241003 -0.240444
v 20.003386 0.531594 -19.794855
v 39.663582 -0.065817 39.882339
v 39.880184 0.158350 19.751047
v 39.237198 -0.140295 0.226654
v 40.399837 -0.328435 -19.815334
vt 0.048470 0.646470
vt 0.031961 0.629961
vt 0.048470 0.629961
vt 0.180549 0.646470
vt 0.164039 0.629961
vt 0.180549 0.629961
vt 0.147530 0.646470
vt 0.131020 0.629961
vt 0.147530 0.629961
vt 0.114510 0.646470
vt 0.098000 0.629961
vt 0.114510 0.629961
vt 0.081490 0.646470
vt 0.064980 0.629961
vt 0.081490 0.629961
vt 0.180549 0.778549
vt 0.164039 0.762039
vt 0.180549 0.762039
vt 0.180549 0.745530
vt 0.164039 0.729020
vt 0.180549 0.729020
vt 0.180549 0.712510
vt 0.164039 0.696000
vt 0.180549 0.696000
vt 0.180549 0.679490
vt 0.164039 0.662980
vt 0.180549 0.662980
vt 0.147530 0.778549
vt 0.131020 0.762039
vt 0.147530 0.762039
vt 0.147530 0.745530
vt 0.131020 0.729020
vt 0.147530 0.729020
vt 0.147530 0.712510
vt 0.131020 0.696000
vt 0.147530 0.696000
vt 0.147530 0.679490
vt 0.131020 0.662980
vt 0.147530 0.662980
vt 0.114510 0.778549
vt 0.098000 0.762039
vt 0.114510 0.762039
vt 0.114510 0.745530
vt 0.098000 0.729020
vt 0.114510 0.729020
vt 0.114510 0.712510
vt 0.098000 0.696000
vt 0.114510 0.696000
vt 0.114510 0.679490
vt 0.098000 0.662980
vt 0.114510 0.662980
vt 0.081490 0.778549
vt 0.064980 0.762039
vt 0.081490 0.762039
vt 0.081490 0.745530
vt 0.064980 0.729020
vt 0.081490 0.729020
vt 0.081490 0.712510
vt 0.064980 0.696000
vt 0.081490 0.696000
vt 0.081490 0.679490
vt 0.064980 0.662980
vt 0.081490 0.662980
vt 0.048470 0.778549
vt 0.031961 0.762039
vt 0.048470 0.762039
vt 0.048470 0.745530
vt 0.031961 0.729020
vt 0.048470 0.729020
vt 0.048470 0.712510
vt 0.031961 0.696000
vt 0.048470 0.696000
vt 0.048470 0.679490
vt 0.031961 0.662980
vt 0.048470 0.662980
vt 0.031961 0.646470
vt 0.164039 0.646470
vt 0.131020 0.646470
vt 0.098000 0.646470
vt 0.064980 0.646470
vt 0.164039 0.778549
vt 0.164039 0.745530
vt 0.164039 0.712510
vt 0.164039 0.679490
vt 0.131020 0.778549
vt 0.131020 0.745530
vt 0.131020 0.712510
vt 0.131020 0.679490
vt 0.098000 0.778549
vt 0.098000 0.745530
vt 0.098000 0.712510
vt 0.098000 0.679490
vt 0.064980 0.778549
vt 0.064980 0.745530
vt 0.064980 0.712510
vt 0.064980 0.679490
vt 0.031961 0.778549
vt 0.031961 0.745530
vt 0.031961 0.712510
vt 0.031961 0.679490
vt 0.015451 0.662980
vt 0.015451 0.646470
vt 0.015451 0.679490
vt 0.015451 0.696000
vt 0.015451 0.712510
vt 0.015451 0.729020
vt 0.015451 0.745530
vt 0.015451 0.762039
vt 0.015451 0.778549
vt 0.048470 0.613451
vt 0.081490 0.613451
vt 0.114510 0.613451
vt 0.147530 0.613451
vt 0.015451 0.629961
vt 0.015451 0.613451
vt 0.064980 0.613451
vt 0.098000 0.613451
vt 0.131020 0.613451
vt 0.164039 0.613451
vt 0.180549 0.613451
vt 0.031961 0.613451
vn -0.0794 0.9968 -0.0079
vn 0.0589 0.9983 0.0020
vn 0.0354 0.9971 0.0673
vn 0.0091 0.9998 0.0184
vn 0.0396 0.9992 -0.0054
vn 0.0337 0.9989 -0.0325
vn 0.0192 0.9993 -0.0324
vn -0.0170 0.9996 -0.0232
vn 0.0416 0.9988 -0.0269
vn -0.0141 0.9988 -0.0465
vn -0.0423 0.9979 -0.0497
vn 0.0451 0.9975 0.0535
vn 0.1101 0.9938 0.0185
vn -0.0207 0.9994 -0.0277
vn -0.0099 0.9998 -0.0156
vn -0.0180 0.9998 0.0033
vn -0.0697 0.9972 0.0277
vn 0.0323 0.9990 -0.0308
vn 0.0530 0.9986 -0.0043
vn 0.0082 0.9959 0.0897
vn -0.0669 0.9974 -0.0251
vn -0.0248 0.9941 -0.1055
vn -0.0166 0.9998 -0.0148
vn 0.0249 0.9979 0.0590
vn 0.0400 0.9986 -0.0336
vn 0.0022 0.9974 0.0716
vn -0.0488 0.9933 -0.1048
vn 0.0145 0.9987 0.0479
vn -0.0105 0.9999 -0.0002
vn 0.0437 0.9990 -0.0012
vn 0.0413 0.9988 -0.0254
vn 0.0492 0.9988 0.0055
vn 0.0322 0.9990 0.0308
vn 0.0180 0.9985 -0.0525
vn 0.0893 0.9948 0.0487
vn 0.0065 1.0000 0.0012
vn -0.0210 0.9996 -0.0194
vn 0.0247 0.9978 -0.0615
vn 0.0114 0.9999 0.0017
vn 0.0581 0.9970 0.0519
vn -0.0329 0.9994 -0.0130
vn -0.0508 0.9976 0.0462
vn 0.0154 0.9987 -0.0480
vn 0.0339 0.9991 -0.0245
vn -0.0480 0.9983 0.0329
vn 0.0190 0.9980 0.0604
vn 0.0434 0.9985 -0.0347
vn 0.0179 0.9997 0.0187
vn -0.0246 0.9996 0.0106
vn 0.0777 0.9970 0.0045
vn -0.0583 0.9980 -0.0250
vn -0.0575 0.9983 0.0006
vn -0.0376 0.9991 0.0206
vn -0.0201 0.9998 -0.0038
vn -0.0194 0.9998 0.0101
vn -0.0526 0.9984 -0.0187
vn -0.0300 0.9994 -0.0183
vn -0.0305 0.9993 0.0212
vn -0.0730 0.9971 -0.0210
vn -0.0353 0.9988 0.0345
vn -0.0352 0.9989 -0.0325
vn 0.0127 0.9998 0.0130
vn 0.0435 0.9980 -0.0457
vn 0.0492 0.9970 0.0601
vn -0.0497 0.9983 -0.0303
vn 0.0143 0.9994 0.0316
vn 0.0141 0.9993 0.0344
vn 0.0377 0.9975 0.0591
vn -0.0466 0.9979 -0.0443
vn -0.0469 0.9985 -0.0299
vn -0.0338 0.9993 -0.0152
vn -0.0317 0.9987 0.0405
vn -0.0359 0.9981 -0.0493
vn -0.0916 0.9904 -0.1031
vn 0.0546 0.9975 0.0457
vn 0.0546 0.9977 0.0413
vn -0.0109 0.9996 -0.0262
vn -0.0332 0.9993 -0.0172
vn -0.0331 0.9994 -0.0130
vn 0.0716 0.9931 0.0930
vn 0.0190 0.9970 -0.0756
vn 0.0188 0.9984 0.0535
vn -0.0442 0.9990 -0.0075
vn 0.0304 0.9984 0.0471
vn 0.0302 0.9995 -0.0000
vn -0.0028 0.9995 -0.0307
vn -0.0878 0.9961 0.0023
vn -0.0868 0.9948 -0.0543
vn -0.0015 0.9997 0.0248
vn 0.0233 0.9995 -0.0204
vn 0.0234 0.9996 -0.0186
vn 0.0437 0.9990 0.0006
vn -0.0220 0.9989 -0.0402
vn -0.0201 0.9998 0.0003
vn -0.0367 0.9992 -0.0156
vn 0.0262 0.9984 0.0503
vn 0.0263 0.9984 0.0492
vn -0.0485 0.9985 -0.0273
vn -0.0497 0.9986 -0.0174
vn -0.0492 0.9976 -0.0493
vn 0.0187 0.9996 0.0212
vn -0.0275 0.9966 -0.0781
vn -0.0232 0.9994 0.0250
vn 0.0043 0.9986 0.0518
vn -0.0010 0.9990 0.0444
vn -0.0037 1.0000 -0.0002
vn -0.0523 0.9974 -0.0499
vn -0.0176 0.9998 0.0042
vn -0.0164 0.9995 -0.0255
vn -0.0373 0.9982 -0.0470
vn 0.0344 0.9986 0.0409
vn 0.0344 0.9994 -0.0012
vn 0.0278 0.9996 -0.0077
vn -0.0321 0.9979 -0.0558
vn -0.0341 0.9994 0.0004
vn -0.0480 0.9988 -0.0134
vn 0.0172 0.9998 0.0082
vn 0.0140 0.9988 0.0479
vn -0.0154 0.9997 0.0171
vn -0.1079 0.9927 -0.0538
vn -0.1087 0.9888 -0.1019
vn 0.0624 0.9959 0.0663
vn 0.0354 0.9994 0.0013
vn 0.0308 0.9970 0.0713
vn -0.0346 0.9994 0.0010
vn 0.0010 0.9990 -0.0440
vn 0.0387 0.9992 -0.0069
vn -0.0345 0.9994 -0.0016
vn 0.0778 0.9963 0.0358
vn 0.0237 0.9995 -0.0186
vn -0.0387 0.9990 -0.0240
vn -0.0234 0.9986 -0.0466
vn -0.0175 0.9990 -0.0408
vn -0.0516 0.9978 -0.0423
vn 0.0165 0.9989 0.0443
vn -0.0239 0.9997 0.0004
vn -0.0722 0.9974 -0.0033
vn 0.0434 0.9980 0.0461
vn -0.0670 0.9960 -0.0598
vn 0.0276 0.9978 -0.0607
vn 0.0234 0.9996 -0.0164
vn 0.0040 0.9993 -0.0367
vn -0.0499 0.9981 -0.0349
vn -0.0569 0.9960 -0.0690
vn 0.0532 0.9980 0.0340
vn 0.0391 0.9986 0.0346
vn 0.0364 0.9982 0.0472
vn 0.0275 0.9989 0.0384
vn -0.0334 0.9987 0.0390
vn -0.0105 0.9999 0.0009
vn -0.0665 0.9961 -0.0586
vn -0.0489 0.9972 -0.0573
vn -0.0465 0.9986 -0.0247
vn -0.0181 0.9998 0.0052
vn -0.0107 0.9999 0.0051
vn -0.0298 0.9987 -0.0404
vn -0.0098 0.9998 -0.0195
vn 0.0728 0.9971 -0.0209
vn 0.0582 0.9970 0.0509
vn -0.0209 0.9993 -0.0323
vn -0.0454 0.9984 -0.0344
vn 0.0152 0.9998 -0.0162
vn 0.1128 0.9904 0.0800
vn -0.0162 0.9969 0.0774
vn 0.0250 0.9969 -0.0745
vn 0.0489 0.9977 -0.0477
vn -0.0068 0.9988 -0.0487
vn -0.0187 0.9988 0.0461
vn -0.0418 0.9989 0.0232
vn 0.0450 0.9988 0.0202
vn 0.0066 1.0000 0.0029
vn -0.0124 0.9998 -0.0158
vn -0.0367 0.9992 -0.0161
vn -0.0480 0.9988 0.0098
vn 0.0358 0.9946 0.0971
vn 0.0625 0.9932 0.0982
vn 0.0165 0.9999 0.0005
vn -0.0168 0.9993 -0.0321
vn 0.0199 0.9993 -0.0331
vn 0.0310 0.9974 0.0651
vn 0.0125 0.9988 0.0476
vn 0.0043 0.9988 0.0487
vn 0.0505 0.9986 -0.0178
vn 0.0337 0.9988 -0.0352
vn -0.0524 0.9981 -0.0334
vn -0.0225 0.9981 -0.0566
vn 0.0393 0.9992 0.0026
vn -0.0032 1.0000 0.0020
vn -0.0189 0.9998 0.0091
vn 0.0105 0.9993 0.0368
vn 0.0554 0.9978 0.0369
vn -0.0195 0.9985 -0.0505
vn 0.0307 0.9995 0.0050
vn 0.0136 0.9999 0.0043
vn -0.0894 0.9956 -0.0272
vn 0.0578 0.9925 0.1076
vn 0.0507 0.9929 0.1073
vn -0.0116 0.9991 0.0403
vn -0.0802 0.9963 -0.0303
vn 0.0098 0.9997 -0.0244
usemtl Material.001
s off
f 36/1/1 97/2/1 72/3/1
f 5/4/2 98/5/2 41/6/2
f 24/7/3 99/8/3 57/9/3
f 28/10/4 100/11/4 62/12/4
f 32/13/5 101/14/5 67/15/5
f 1/16/6 102/17/6 37/18/6
f 8/19/7 103/20/7 44/21/7
f 7/22/8 104/23/8 43/24/8
f 6/25/9 105/26/9 42/27/9
f 9/28/10 106/29/10 58/30/10
f 21/31/11 107/32/11 59/33/11
f 22/34/12 108/35/12 60/36/12
f 23/37/13 109/38/13 61/39/13
f 10/40/14 110/41/14 63/42/14
f 25/43/15 111/44/15 64/45/15
f 26/46/16 112/47/16 65/48/16
f 27/49/17 113/50/17 66/51/17
f 11/52/18 114/53/18 68/54/18
f 29/55/19 115/56/19 69/57/19
f 30/58/20 116/59/20 70/60/20
f 31/61/21 117/62/21 71/63/21
f 12/64/22 118/65/22 73/66/22
f 33/67/23 119/68/23 74/69/23
f 34/70/24 120/71/24 75/72/24
f 35/73/25 121/74/25 76/75/25
f 36/1/26 96/76/26 97/2/26
f 5/4/27 80/77/27 98/5/27
f 24/7/28 84/78/28 99/8/28
f 28/10/29 88/79/29 100/11/29
f 32/13/30 92/80/30 101/14/30
f 1/16/31 45/81/31 102/17/31
f 8/19/32 77/82/32 103/20/32
f 7/22/33 78/83/33 104/23/33
f 6/25/34 79/84/34 105/26/34
f 9/28/35 46/85/35 106/29/35
f 21/31/36 81/86/36 107/32/36
f 22/34/37 82/87/37 108/35/37
f 23/37/38 83/88/38 109/38/38
f 10/40/39 47/89/39 110/41/39
f 25/43/40 85/90/40 111/44/40
f 26/46/41 86/91/41 112/47/41
f 27/49/42 87/92/42 113/50/42
f 11/52/43 48/93/43 114/53/43
f 29/55/44 89/94/44 115/56/44
f 30/58/45 90/95/45 116/59/45
f 31/61/46 91/96/46 117/62/46
f 12/64/47 38/97/47 118/65/47
f 33/67/48 93/98/48 119/68/48
f 34/70/49 94/99/49 120/71/49
f 35/73/50 95/100/50 121/74/50
f 121/74/51 52/101/51 16/102/51
f 121/74/52 95/100/52 52/101/52
f 95/100/53 15/103/53 52/101/53
f 120/71/54 51/104/54 15/103/54
f 120/71/55 94/99/55 51/104/55
f 94/99/56 14/105/56 51/104/56
f 119/68/57 50/106/57 14/105/57
f 119/68/58 93/98/58 50/106/58
f 93/98/59 13/107/59 50/106/59
f 118/65/60 49/108/60 13/107/60
f 118/65/61 38/97/61 49/108/61
f 38/97/62 2/109/62 49/108/62
f 117/62/63 76/75/63 36/1/63
f 117/62/64 91/96/64 76/75/64
f 91/96/65 35/73/65 76/75/65
f 116/59/66 75/72/66 35/73/66
f 116/59/67 90/95/67 75/72/67
f 90/95/68 34/70/68 75/72/68
f 115/56/69 74/69/69 34/70/69
f 115/56/70 89/94/70 74/69/70
f 89/94/71 33/67/71 74/69/71
f 114/53/72 73/66/72 33/67/72
f 114/53/73 48/93/73 73/66/73
f 48/93/74 12/64/74 73/66/74
f 113/50/75 71/63/75 32/13/75
f 113/50/76 87/92/76 71/63/76
f 87/92/77 31/61/77 71/63/77
f 112/47/78 70/60/78 31/61/78
f 112/47/79 86/91/79 70/60/79
f 86/91/80 30/58/80 70/60/80
f 111/44/81 69/57/81 30/58/81
f 111/44/82 85/90/82 69/57/82
f 85/90/83 29/55/83 69/57/83
f 110/41/84 68/54/84 29/55/84
f 110/41/85 47/89/85 68/54/85
f 47/89/86 11/52/86 68/54/86
f 109/38/87 66/51/87 28/10/87
f 109/38/88 83/88/88 66/51/88
f 83/88/89 27/49/89 66/51/89
f 108/35/90 65/48/90 27/49/90
f 108/35/91 82/87/91 65/48/91
f 82/87/92 26/46/92 65/48/92
f 107/32/93 64/45/93 26/46/93
f 107/32/94 81/86/94 64/45/94
f 81/86/95 25/43/95 64/45/95
f 106/29/96 63/42/96 25/43/96
f 106/29/97 46/85/97 63/42/97
f 46/85/98 10/40/98 63/42/98
f 105/26/99 61/39/99 24/7/99
f 105/26/100 79/84/100 61/39/100
f 79/84/101 23/37/101 61/39/101
f 104/23/102 60/36/102 23/37/102
f 104/23/103 78/83/103 60/36/103
f 78/83/104 22/34/104 60/36/104
f 103/20/105 59/33/105 22/34/105
f 103/20/106 77/82/106 59/33/106
f 77/82/107 21/31/107 59/33/107
f 102/17/108 58/30/108 21/31/108
f 102/17/109 45/81/109 58/30/109
f 45/81/110 9/28/110 58/30/110
f 101/14/111 72/3/111 17/110/111
f 101/14/112 92/80/112 72/3/112
f 92/80/113 36/1/113 72/3/113
f 100/11/114 67/15/114 18/111/114
f 100/11/115 88/79/115 67/15/115
f 88/79/116 32/13/116 67/15/116
f 99/8/117 62/12/117 19/112/117
f 99/8/118 84/78/118 62/12/118
f 84/78/119 28/10/119 62/12/119
f 98/5/120 57/9/120 20/113/120
f 98/5/121 80/77/121 57/9/121
f 80/77/122 24/7/122 57/9/122
f 97/2/123 39/114/123 4/115/123
f 97/2/124 96/76/124 39/114/124
f 96/76/125 16/102/125 39/114/125
f 76/75/126 96/76/126 36/1/126
f 76/75/127 121/74/127 96/76/127
f 121/74/128 16/102/128 96/76/128
f 75/72/129 95/100/129 35/73/129
f 75/72/130 120/71/130 95/100/130
f 120/71/131 15/103/131 95/100/131
f 74/69/132 94/99/132 34/70/132
f 74/69/133 119/68/133 94/99/133
f 119/68/134 14/105/134 94/99/134
f 73/66/135 93/98/135 33/67/135
f 73/66/136 118/65/136 93/98/136
f 118/65/137 13/107/137 93/98/137
f 71/63/138 92/80/138 32/13/138
f 71/63/139 117/62/139 92/80/139
f 117/62/140 36/1/140 92/80/140
f 70/60/141 91/96/141 31/61/141
f 70/60/142 116/59/142 91/96/142
f 116/59/143 35/73/143 91/96/143
f 69/57/144 90/95/144 30/58/144
f 69/57/145 115/56/145 90/95/145
f 115/56/146 34/70/146 90/95/146
f 68/54/147 89/94/147 29/55/147
f 68/54/148 114/53/148 89/94/148
f 114/53/149 33/67/149 89/94/149
f 66/51/150 88/79/150 28/10/150
f 66/51/151 113/50/151 88/79/151
f 113/50/152 32/13/152 88/79/152
f 65/48/153 87/92/153 27/49/153
f 65/48/154 112/47/154 87/92/154
f 112/47/155 31/61/155 87/92/155
f 64/45/156 86/91/156 26/46/156
f 64/45/157 111/44/157 86/91/157
f 111/44/158 30/58/158 86/91/158
f 63/42/159 85/90/159 25/43/159
f 63/42/160 110/41/160 85/90/160
f 110/41/161 29/55/161 85/90/161
f 61/39/162 84/78/162 24/7/162
f 61/39/163 109/38/163 84/78/163
f 109/38/164 28/10/164 84/78/164
f 60/36/165 83/88/165 23/37/165
f 60/36/166 108/35/166 83/88/166
f 108/35/167 27/49/167 83/88/167
f 59/33/168 82/87/168 22/34/168
f 59/33/169 107/32/169 82/87/169
f 107/32/170 26/46/170 82/87/170
f 58/30/171 81/86/171 21/31/171
f 58/30/172 106/29/172 81/86/172
f 106/29/173 25/43/173 81/86/173
f 42/27/174 80/77/174 5/4/174
f 42/27/175 105/26/175 80/77/175
f 105/26/176 24/7/176 80/77/176
f 43/24/177 79/84/177 6/25/177
f 43/24/178 104/23/178 79/84/178
f 104/23/179 23/37/179 79/84/179
f 44/21/180 78/83/180 7/22/180
f 44/21/181 103/20/181 78/83/181
f 103/20/182 22/34/182 78/83/182
f 37/18/183 77/82/183 8/19/183
f 37/18/184 102/17/184 77/82/184
f 102/17/185 21/31/185 77/82/185
f 67/15/186 54/116/186 18/111/186
f 67/15/187 101/14/187 54/116/187
f 101/14/188 17/110/188 54/116/188
f 62/12/189 55/117/189 19/112/189
f 62/12/190 100/11/190 55/117/190
f 100/11/191 18/111/191 55/117/191
f 57/9/192 56/118/192 20/113/192
f 57/9/193 99/8/193 56/118/193
f 99/8/194 19/112/194 56/118/194
f 41/6/195 40/119/195 3/120/195
f 41/6/196 98/5/196 40/119/196
f 98/5/197 20/113/197 40/119/197
f 72/3/198 53/121/198 17/110/198
f 72/3/199 97/2/199 53/121/199
f 97/2/200 4/115/200 53/121/200
