# Blender v2.80 (sub 53) OBJ File: 'sugarcane.blend'
# www.blender.org
mtllib sugarcane.mtl
o Cane_Cube.015
v 0.298972 0.031652 -0.459665
v 0.597498 0.430615 -0.551944
v 0.513787 0.493482 -0.530313
v 0.676671 0.377878 -0.503179
v 0.592961 0.440745 -0.481547
v 0.891487 0.839708 -0.573827
v -0.296776 4.490084 0.274123
v -0.259951 4.475357 0.442726
v -0.424809 4.473769 0.389627
v -0.078146 -0.000000 0.012078
v -0.243069 -0.000000 -0.040868
v -0.114373 -0.000000 -0.157943
v 0.233784 3.942729 0.353049
v 0.318179 3.941231 0.504295
v 0.145067 3.946318 0.501765
v 0.201993 -0.000000 0.530111
v 0.028731 0.000000 0.527614
v 0.117554 0.000000 0.378875
v 0.568566 4.118406 -0.029191
v 0.660321 4.104124 0.117018
v 0.487333 4.109836 0.123544
v 0.513162 0.000000 -0.191531
v 0.339969 0.000000 -0.185435
v 0.420895 0.000000 -0.338814
v 0.252899 4.077039 -0.401056
v 0.341696 4.073615 -0.252384
v 0.168517 4.071979 -0.249880
v 0.378518 -0.000001 -0.368188
v 0.205324 -0.000001 -0.365637
v 0.289751 -0.000000 -0.516957
v -0.383227 -2.224216 -0.657764
v -0.390524 2.773876 -0.795682
v -0.307055 2.778184 -0.643978
v -0.480222 2.777832 -0.647566
v -0.302999 -0.000000 -0.567316
v -0.476167 -0.000000 -0.570914
v -0.386474 -0.000000 -0.719140
v -0.301539 -1.000000 -0.539722
v -0.385014 -1.000000 -0.691545
v -0.391870 1.855881 -0.718244
v -0.082583 1.831141 -1.118911
v -0.133093 1.916667 -1.158429
v -0.003744 1.804844 -1.051676
v -0.054254 1.890370 -1.091194
v 0.255033 1.865631 -1.491861
v -0.389014 1.863400 -0.700993
v -0.078242 1.979405 -1.084096
v -0.129892 2.072594 -1.092805
v 0.000781 1.932966 -1.029083
v -0.050868 2.026155 -1.037792
v 0.259904 2.142160 -1.420895
v -0.380389 1.882256 -0.708496
v -0.144467 2.161001 -1.059846
v -0.193964 2.246783 -1.019605
v -0.057904 2.100166 -1.044564
v -0.107400 2.185947 -1.004324
v 0.128521 2.464692 -1.355673
v -1.087382 4.542306 0.829497
v -0.745022 4.250805 0.595787
v -0.763832 4.306721 0.506639
v -0.686640 4.254160 0.685274
v -0.705450 4.310076 0.596127
v -0.363089 4.018575 0.362416
v -0.903991 4.403898 1.068718
v -0.645095 4.154239 0.711719
v -0.700845 4.208692 0.638544
v -0.558462 4.163036 0.773728
v -0.614212 4.217489 0.700553
v -0.355317 3.967829 0.343555
v -0.751824 4.246394 1.214630
v -0.534739 4.065423 0.794002
v -0.618694 4.102554 0.739226
v -0.440593 4.097145 0.833471
v -0.524548 4.134276 0.778695
v -0.307463 3.953306 0.358066
v 0.838331 2.257713 0.900343
v 0.706324 2.380818 0.426821
v 0.609100 2.404862 0.464198
v 0.803641 2.423385 0.414780
v 0.706418 2.447429 0.452157
v 0.574410 2.570535 -0.021366
v 0.739084 2.519841 0.955106
v 0.637575 2.511971 0.458680
v 0.542535 2.555389 0.481262
v 0.739442 2.539306 0.441254
v 0.644402 2.582723 0.463836
v 0.542893 2.574853 -0.032590
v 0.296516 0.021647 -0.469721
v 0.588507 0.310865 -0.766199
v 0.532668 0.395462 -0.732244
v 0.671307 0.249263 -0.738321
v 0.615468 0.333860 -0.704366
v 0.907459 0.623078 -1.000844
v 0.299351 0.016577 -0.468529
v 0.615111 0.369045 -0.649820
v 0.535561 0.439814 -0.640279
v 0.692987 0.323282 -0.592647
v 0.613437 0.394052 -0.583106
v 0.929197 0.746519 -0.764397
vt 0.041325 0.591413
vt 0.013995 0.512048
vt 0.029332 0.508555
vt 0.013995 0.426836
vt 0.124655 0.590597
vt 0.137294 0.507596
vt 0.153458 0.511095
vt 0.153458 0.425736
vt 0.041325 0.506201
vt 0.124655 0.505238
vt 0.346122 0.465063
vt 0.346122 0.490122
vt 0.326999 0.477592
vt 0.267654 0.422203
vt 0.267654 0.447263
vt 0.248428 0.434712
vt 0.290025 0.409609
vt 0.305070 0.409546
vt 0.305070 0.585902
vt 0.290025 0.585902
vt 0.274981 0.409546
vt 0.290025 0.410189
vt 0.290025 0.586482
vt 0.274981 0.586482
vt 0.259937 0.410127
vt 0.259937 0.586482
vt 0.326999 0.465063
vt 0.326999 0.490122
vt 0.307876 0.477592
vt 0.305909 0.422203
vt 0.305909 0.447263
vt 0.286778 0.434728
vt 0.319532 0.566446
vt 0.304488 0.566247
vt 0.304488 0.411709
vt 0.319532 0.411709
vt 0.319532 0.411850
vt 0.334577 0.411709
vt 0.334577 0.566446
vt 0.319532 0.566446
vt 0.349621 0.566247
vt 0.334577 0.566306
vt 0.334577 0.411709
vt 0.349621 0.411709
vt 0.307876 0.465063
vt 0.307876 0.490122
vt 0.288753 0.477592
vt 0.286778 0.447348
vt 0.267654 0.434792
vt 0.286778 0.422203
vt 0.350203 0.571179
vt 0.335158 0.570955
vt 0.335158 0.409546
vt 0.350203 0.409546
vt 0.305070 0.409546
vt 0.320114 0.409883
vt 0.320114 0.571516
vt 0.305070 0.571516
vt 0.320114 0.410108
vt 0.335158 0.409546
vt 0.335158 0.571516
vt 0.320114 0.571516
vt 0.288753 0.465063
vt 0.288753 0.490122
vt 0.269630 0.477592
vt 0.325040 0.422203
vt 0.325040 0.447263
vt 0.305909 0.434727
vt 0.289443 0.411774
vt 0.304488 0.411709
vt 0.304488 0.571436
vt 0.289443 0.571436
vt 0.274399 0.411709
vt 0.289443 0.411908
vt 0.289443 0.571570
vt 0.274399 0.571570
vt 0.259355 0.411844
vt 0.259355 0.571570
vt 0.305858 0.422203
vt 0.305858 0.447262
vt 0.296296 0.434732
vt 0.296296 0.447270
vt 0.286734 0.434743
vt 0.296296 0.422203
vt 0.263253 0.425756
vt 0.274294 0.425741
vt 0.274294 0.542672
vt 0.263253 0.542672
vt 0.263253 0.542490
vt 0.252212 0.542657
vt 0.252212 0.425741
vt 0.263253 0.425741
vt 0.274294 0.425379
vt 0.285334 0.425560
vt 0.285334 0.542310
vt 0.274294 0.542310
vt 0.063850 0.583035
vt 0.035047 0.503532
vt 0.051211 0.500033
vt 0.035047 0.418173
vt 0.114030 0.586353
vt 0.126211 0.502197
vt 0.141788 0.505744
vt 0.141788 0.419197
vt 0.063850 0.497676
vt 0.114030 0.499806
vt 0.121455 0.583035
vt 0.092652 0.503532
vt 0.108816 0.500033
vt 0.092652 0.418173
vt 0.086272 0.586353
vt 0.098453 0.502197
vt 0.114030 0.505744
vt 0.114030 0.419197
vt 0.121455 0.497676
vt 0.086272 0.499806
vt 0.179059 0.583035
vt 0.150257 0.503532
vt 0.166420 0.500033
vt 0.150257 0.418173
vt 0.030756 0.586353
vt 0.042937 0.502197
vt 0.058514 0.505744
vt 0.058514 0.419197
vt 0.179059 0.497676
vt 0.030756 0.499806
vt 0.067050 0.590597
vt 0.038248 0.511095
vt 0.054411 0.507596
vt 0.038248 0.425736
vt 0.146626 0.586670
vt 0.158390 0.505391
vt 0.173435 0.508817
vt 0.173435 0.425229
vt 0.067050 0.505238
vt 0.146626 0.503082
vt 0.124655 0.590597
vt 0.095853 0.511095
vt 0.112016 0.507596
vt 0.095853 0.425736
vt 0.093007 0.586670
vt 0.104772 0.505391
vt 0.119816 0.508817
vt 0.119816 0.425229
vt 0.124655 0.505238
vt 0.093007 0.503082
vt 0.035047 0.583035
vt 0.006245 0.503532
vt 0.022408 0.500033
vt 0.006245 0.418173
vt 0.041325 0.591413
vt 0.053318 0.508555
vt 0.068655 0.512048
vt 0.068655 0.426836
vt 0.035047 0.497676
vt 0.041325 0.506201
vt 0.095853 0.590597
vt 0.067050 0.511095
vt 0.083214 0.507596
vt 0.067050 0.425736
vt 0.068655 0.591413
vt 0.080648 0.508555
vt 0.095985 0.512048
vt 0.095985 0.426836
vt 0.095853 0.505238
vt 0.068655 0.506201
vt 0.038248 0.590597
vt 0.009446 0.511095
vt 0.025609 0.507596
vt 0.009446 0.425736
vt 0.119816 0.586670
vt 0.131581 0.505391
vt 0.146626 0.508817
vt 0.146626 0.425229
vt 0.038248 0.505238
vt 0.119816 0.503082
vt 0.150257 0.583035
vt 0.121455 0.503532
vt 0.137618 0.500033
vt 0.121455 0.418173
vt 0.039587 0.588884
vt 0.052368 0.500581
vt 0.068713 0.504303
vt 0.068713 0.413491
vt 0.150257 0.497676
vt 0.039587 0.498072
vt 0.092652 0.583035
vt 0.063850 0.503532
vt 0.080013 0.500033
vt 0.063850 0.418173
vt 0.058514 0.586353
vt 0.070695 0.502197
vt 0.086272 0.505744
vt 0.086272 0.419197
vt 0.092652 0.497676
vt 0.058514 0.499806
vn -0.2666 -0.0234 -0.9635
vn -0.1897 0.0840 -0.9782
vn 0.2666 0.0234 0.9635
vn 0.1897 -0.0840 0.9782
vn 0.2695 -0.4038 -0.8742
vn 0.3487 -0.2981 -0.8886
vn -0.2695 0.4038 0.8742
vn -0.3487 0.2981 0.8886
vn -0.0404 0.9946 0.0957
vn -0.0000 -1.0000 0.0000
vn -0.3040 -0.1035 0.9470
vn -0.6723 0.0438 -0.7390
vn 0.9763 0.0597 -0.2080
vn 0.0295 0.9995 -0.0065
vn -0.0144 0.0070 0.9999
vn -0.8584 0.0219 -0.5126
vn 0.8728 -0.0289 -0.4873
vn 0.0357 0.9965 0.0749
vn 0.0351 -0.0762 0.9965
vn -0.8825 0.0666 -0.4656
vn 0.8474 0.0095 -0.5309
vn -0.0090 0.9996 0.0284
vn 0.0147 -0.0283 0.9995
vn -0.8733 0.0060 -0.4872
vn 0.8585 0.0223 -0.5123
vn -0.0015 0.9996 -0.0276
vn -0.0208 0.0275 0.9994
vn -0.8555 -0.0155 -0.5176
vn 0.8762 -0.0120 -0.4818
vn -0.6510 -0.5996 -0.4655
vn -0.5665 -0.5970 -0.5680
vn 0.6510 0.5996 0.4655
vn 0.5665 0.5970 0.5680
vn -0.2253 -0.9676 -0.1142
vn -0.1389 -0.9666 -0.2152
vn 0.2253 0.9676 0.1142
vn 0.1389 0.9666 0.2152
vn -0.6408 -0.4155 -0.6456
vn -0.5560 -0.3774 -0.7406
vn 0.6408 0.4155 0.6456
vn 0.5560 0.3774 0.7406
vn -0.2107 -0.8750 -0.4359
vn -0.1241 -0.8389 -0.5300
vn 0.2107 0.8750 0.4359
vn 0.1241 0.8389 0.5299
vn -0.7639 -0.1459 -0.6286
vn -0.6975 -0.0679 -0.7133
vn 0.7639 0.1459 0.6286
vn 0.6975 0.0678 0.7133
vn -0.3161 -0.6284 -0.7108
vn -0.2478 -0.5525 -0.7958
vn 0.3161 0.6284 0.7108
vn 0.2478 0.5525 0.7958
vn -0.7214 -0.6449 -0.2523
vn -0.6262 -0.7131 -0.3152
vn 0.7214 0.6449 0.2523
vn 0.6262 0.7131 0.3152
vn -0.4673 -0.8179 0.3356
vn -0.3710 -0.8869 0.2753
vn 0.4673 0.8179 -0.3356
vn 0.3710 0.8869 -0.2753
vn -0.6965 -0.7175 -0.0033
vn -0.6250 -0.7742 -0.0999
vn 0.6965 0.7175 0.0033
vn 0.6250 0.7742 0.0999
vn -0.2279 -0.8678 0.4416
vn -0.1544 -0.9251 0.3469
vn 0.2279 0.8678 -0.4416
vn 0.1544 0.9251 -0.3469
vn -0.4716 -0.8719 0.1318
vn -0.4143 -0.9100 0.0181
vn 0.4716 0.8719 -0.1317
vn 0.4142 0.9100 -0.0181
vn 0.1145 -0.8897 0.4419
vn 0.1745 -0.9279 0.3296
vn -0.1145 0.8897 -0.4419
vn -0.1745 0.9279 -0.3296
vn -0.2953 -0.9415 -0.1624
vn -0.3315 -0.8999 -0.2834
vn 0.2953 0.9415 0.1624
vn 0.3315 0.8999 0.2834
vn 0.3449 -0.8805 -0.3251
vn 0.3116 -0.8387 -0.4467
vn -0.3449 0.8805 0.3251
vn -0.3116 0.8387 0.4467
vn -0.3948 -0.9138 0.0952
vn -0.4221 -0.9059 -0.0346
vn 0.3948 0.9138 -0.0952
vn 0.4221 0.9059 0.0346
vn 0.2532 -0.9667 -0.0364
vn 0.2288 -0.9591 -0.1669
vn -0.2532 0.9667 0.0364
vn -0.2288 0.9591 0.1669
vn -0.6447 -0.1227 -0.7546
vn -0.5650 -0.0422 -0.8240
vn 0.6447 0.1227 0.7546
vn 0.5650 0.0422 0.8240
vn -0.1884 -0.6038 -0.7746
vn -0.1067 -0.5254 -0.8441
vn 0.1884 0.6038 0.7746
vn 0.1067 0.5254 0.8441
vn -0.2991 -0.2107 -0.9307
vn -0.2173 -0.1135 -0.9695
vn 0.2991 0.2107 0.9307
vn 0.2173 0.1135 0.9695
vn 0.2190 -0.5942 -0.7739
vn 0.3031 -0.4987 -0.8120
vn -0.2190 0.5942 0.7739
vn -0.3031 0.4987 0.8120
usemtl SUGARCANE
s off
f 1/1/1 3/2/1 2/3/1
f 2/3/2 3/2/2 6/4/2
f 6/5/3 5/6/3 4/7/3
f 4/7/4 5/6/4 1/8/4
f 1/1/5 2/3/5 4/9/5
f 6/4/6 4/9/6 2/3/6
f 5/6/7 6/5/7 3/10/7
f 5/6/8 3/10/8 1/8/8
f 8/11/9 7/12/9 9/13/9
f 10/14/10 11/15/10 12/16/10
f 11/17/11 10/18/11 8/19/11 9/20/11
f 12/21/12 11/22/12 9/23/12 7/24/12
f 10/25/13 12/21/13 7/24/13 8/26/13
f 14/27/14 13/28/14 15/29/14
f 18/30/10 16/31/10 17/32/10
f 17/33/15 16/34/15 14/35/15 15/36/15
f 18/37/16 17/38/16 15/39/16 13/40/16
f 16/41/17 18/42/17 13/43/17 14/44/17
f 20/45/18 19/46/18 21/47/18
f 22/48/10 23/49/10 24/50/10
f 23/51/19 22/52/19 20/53/19 21/54/19
f 24/55/20 23/56/20 21/57/20 19/58/20
f 22/59/21 24/60/21 19/61/21 20/62/21
f 26/63/22 25/64/22 27/65/22
f 28/66/10 29/67/10 30/68/10
f 29/69/23 28/70/23 26/71/23 27/72/23
f 30/73/24 29/74/24 27/75/24 25/76/24
f 28/77/25 30/73/25 25/76/25 26/78/25
f 33/79/26 32/80/26 34/81/26
f 35/82/10 36/83/10 37/84/10
f 36/85/27 35/86/27 33/87/27 34/88/27
f 37/89/28 36/90/28 34/91/28 32/92/28
f 35/93/29 37/94/29 32/95/29 33/96/29
f 40/97/30 42/98/30 41/99/30
f 41/99/31 42/98/31 45/100/31
f 45/101/32 44/102/32 43/103/32
f 43/103/33 44/102/33 40/104/33
f 40/97/34 41/99/34 43/105/34
f 45/100/35 43/105/35 41/99/35
f 44/102/36 45/101/36 42/106/36
f 44/102/37 42/106/37 40/104/37
f 46/107/38 48/108/38 47/109/38
f 47/109/39 48/108/39 51/110/39
f 51/111/40 50/112/40 49/113/40
f 49/113/41 50/112/41 46/114/41
f 46/107/42 47/109/42 49/115/42
f 51/110/43 49/115/43 47/109/43
f 50/112/44 51/111/44 48/116/44
f 50/112/45 48/116/45 46/114/45
f 52/117/46 54/118/46 53/119/46
f 53/119/47 54/118/47 57/120/47
f 57/121/48 56/122/48 55/123/48
f 55/123/49 56/122/49 52/124/49
f 52/117/50 53/119/50 55/125/50
f 57/120/51 55/125/51 53/119/51
f 56/122/52 57/121/52 54/126/52
f 56/122/53 54/126/53 52/124/53
f 58/127/54 60/128/54 59/129/54
f 59/129/55 60/128/55 63/130/55
f 63/131/56 62/132/56 61/133/56
f 61/133/57 62/132/57 58/134/57
f 58/127/58 59/129/58 61/135/58
f 63/130/59 61/135/59 59/129/59
f 62/132/60 63/131/60 60/136/60
f 62/132/61 60/136/61 58/134/61
f 64/137/62 66/138/62 65/139/62
f 65/139/63 66/138/63 69/140/63
f 69/141/64 68/142/64 67/143/64
f 67/143/65 68/142/65 64/144/65
f 64/137/66 65/139/66 67/145/66
f 69/140/67 67/145/67 65/139/67
f 68/142/68 69/141/68 66/146/68
f 68/142/69 66/146/69 64/144/69
f 70/147/70 72/148/70 71/149/70
f 71/149/71 72/148/71 75/150/71
f 75/151/72 74/152/72 73/153/72
f 73/153/73 74/152/73 70/154/73
f 70/147/74 71/149/74 73/155/74
f 75/150/75 73/155/75 71/149/75
f 74/152/76 75/151/76 72/156/76
f 74/152/77 72/156/77 70/154/77
f 76/157/78 78/158/78 77/159/78
f 77/159/79 78/158/79 81/160/79
f 81/161/80 80/162/80 79/163/80
f 79/163/81 80/162/81 76/164/81
f 76/157/82 77/159/82 79/165/82
f 81/160/83 79/165/83 77/159/83
f 80/162/84 81/161/84 78/166/84
f 80/162/85 78/166/85 76/164/85
f 82/167/86 84/168/86 83/169/86
f 83/169/87 84/168/87 87/170/87
f 87/171/88 86/172/88 85/173/88
f 85/173/89 86/172/89 82/174/89
f 82/167/90 83/169/90 85/175/90
f 87/170/91 85/175/91 83/169/91
f 86/172/92 87/171/92 84/176/92
f 86/172/93 84/176/93 82/174/93
f 88/177/94 90/178/94 89/179/94
f 89/179/95 90/178/95 93/180/95
f 93/181/96 92/182/96 91/183/96
f 91/183/97 92/182/97 88/184/97
f 88/177/98 89/179/98 91/185/98
f 93/180/99 91/185/99 89/179/99
f 92/182/100 93/181/100 90/186/100
f 92/182/101 90/186/101 88/184/101
f 94/187/102 96/188/102 95/189/102
f 95/189/103 96/188/103 99/190/103
f 99/191/104 98/192/104 97/193/104
f 97/193/105 98/192/105 94/194/105
f 94/187/106 95/189/106 97/195/106
f 99/190/107 97/195/107 95/189/107
f 98/192/108 99/191/108 96/196/108
f 98/192/109 96/196/109 94/194/109
