# Blender v2.80 (sub 53) OBJ File: 'tree2.blend'
# www.blender.org
mtllib tree2.mtl
o Cube_Cube.002
v -0.400000 0.000000 0.400000
v -0.272458 0.800000 0.361239
v -0.400000 0.000000 -0.400000
v -0.361239 0.800000 -0.272458
v 0.400000 0.000000 0.400000
v 0.361239 0.800000 0.272458
v 0.400000 0.000000 -0.400000
v 0.272458 0.800000 -0.361239
v -0.297364 2.221848 0.263924
v -0.263924 2.221848 -0.297364
v 0.297364 2.221848 -0.263924
v 0.263924 2.221848 0.297364
v -0.303771 3.538771 0.168473
v -0.168473 3.538771 -0.303771
v 0.303771 3.538771 -0.168473
v 0.168473 3.538771 0.303771
v -0.300136 2.791708 0.222621
v 0.231555 2.668441 0.299537
v 0.073990 2.307122 0.827881
v -0.277278 2.374412 0.786101
v 0.114368 2.580363 0.750834
v -0.201627 2.710250 0.662115
v -0.001774 2.517966 1.345547
v -0.296896 2.579877 1.295696
v 0.043284 2.730032 1.234922
v -0.219386 2.834501 1.135648
v -0.069317 2.811420 1.755780
v -0.294074 2.860131 1.708946
v -0.028946 2.958296 1.647483
v -0.227575 3.032722 1.558398
v 0.271998 3.922304 -0.179938
v -0.176692 3.813737 -0.280992
v -0.007831 3.832580 -0.817352
v 0.382504 3.783788 -0.723105
v 0.363833 4.079962 -0.611553
v -0.008859 4.035030 -0.714037
v 0.034812 4.245999 -1.179219
v 0.268764 4.216754 -1.122731
v 0.257573 4.394271 -1.055871
v 0.034195 4.367340 -1.117296
v -0.175102 3.910879 0.195402
v 0.167959 3.883848 0.260887
vt 0.531264 0.934185
vt 0.528568 0.913382
vt 0.544654 0.910744
vt 0.551743 0.930500
vt 0.551743 0.906975
vt 0.552779 0.886008
vt 0.569108 0.886330
vt 0.572567 0.906975
vt 0.484034 0.818863
vt 0.479217 0.839130
vt 0.463303 0.836405
vt 0.463591 0.815433
vt 0.551743 0.964597
vt 0.552936 0.943740
vt 0.569222 0.943864
vt 0.572549 0.964597
vt 0.458305 0.933866
vt 0.479138 0.933908
vt 0.479138 0.954608
vt 0.458305 0.954565
vt 0.554887 0.849654
vt 0.569561 0.849533
vt 0.456272 0.872604
vt 0.470720 0.875008
vt 0.462662 0.908218
vt 0.450170 0.906204
vt 0.454203 0.883998
vt 0.524118 0.877071
vt 0.538538 0.874381
vt 0.555244 0.907022
vt 0.569915 0.906975
vt 0.458305 0.943425
vt 0.445728 0.943693
vt 0.445737 0.934713
vt 0.454794 0.933866
vt 0.522405 0.862485
vt 0.520159 0.843363
vt 0.532455 0.840762
vt 0.430077 0.972567
vt 0.415433 0.972567
vt 0.419662 0.958499
vt 0.428975 0.958977
vt 0.557010 0.815923
vt 0.569557 0.815433
vt 0.461213 0.918060
vt 0.476034 0.916844
vt 0.471856 0.923928
vt 0.458305 0.962811
vt 0.444345 0.966193
vt 0.443306 0.956900
vt 0.434517 0.958066
vt 0.435580 0.946042
vt 0.442976 0.944425
vt 0.444345 0.969001
vt 0.430077 0.969001
vt 0.442679 0.879824
vt 0.441754 0.872522
vt 0.510041 0.875556
vt 0.511701 0.866258
vt 0.427384 0.875691
vt 0.429445 0.881575
vt 0.417698 0.885639
vt 0.415433 0.881429
vt 0.495969 0.872771
vt 0.498948 0.865354
vt 0.421157 0.944825
vt 0.429014 0.945604
vt 0.523772 0.934185
vt 0.523772 0.940225
vt 0.519707 0.940163
vt 0.518866 0.934534
vt 0.484034 0.867581
vt 0.487152 0.862316
vt 0.422752 0.933866
vt 0.428752 0.934686
vt 0.436504 0.935442
vt 0.442140 0.933866
vt 0.544421 0.830464
vt 0.540792 0.825825
vt 0.549568 0.815433
vt 0.551743 0.818213
vt 0.530524 0.833942
vt 0.495691 0.934185
vt 0.508492 0.934304
vt 0.508492 0.947852
vt 0.497963 0.948251
vt 0.495691 0.957060
vt 0.484034 0.957345
vt 0.484138 0.945762
vt 0.494025 0.945004
vt 0.512613 0.943713
vt 0.518831 0.944070
vt 0.518866 0.947405
vt 0.512974 0.948497
vt 0.508492 0.934185
vt 0.518866 0.934780
vt 0.489765 0.934639
vt 0.495691 0.934185
vt 0.484034 0.929620
vt 0.481530 0.933866
vt 0.517860 0.833676
vt 0.449786 0.915197
vt 0.493645 0.969050
vt 0.484505 0.969090
vn -0.9931 0.0998 0.0615
vn -0.0615 0.0998 -0.9931
vn 0.9931 0.0998 -0.0615
vn 0.0615 0.0998 0.9931
vn 0.0000 -1.0000 0.0000
vn -0.0462 0.0274 -0.9986
vn 0.9866 0.0271 0.1611
vn 0.9986 0.0274 -0.0462
vn -0.9986 0.0274 0.0462
vn 0.0462 0.0274 0.9986
vn -0.2366 0.0639 0.9695
vn -0.9866 0.0271 -0.1611
vn -0.0888 -0.9745 0.2059
vn 0.1611 0.0271 -0.9866
vn 0.9811 0.0451 0.1881
vn -0.2042 0.0218 0.9787
vn 0.4253 0.8798 -0.2122
vn 0.2476 0.9508 0.1862
vn 0.9542 0.0204 0.2985
vn -0.9883 0.1004 0.1145
vn 0.9700 -0.0940 0.2244
vn 0.9783 -0.1025 0.1803
vn -0.9737 0.2022 -0.1048
vn -0.2309 -0.9090 0.3470
vn -0.0596 0.6404 0.7657
vn -0.9645 0.2264 -0.1358
vn -0.2699 -0.7999 0.5361
vn 0.4629 0.8067 -0.3673
vn -0.9964 0.0347 -0.0778
vn -0.9527 0.0602 -0.2978
vn 0.0657 -0.8968 -0.4376
vn -0.2508 0.9121 0.3244
vn 0.2315 0.3927 -0.8901
vn 0.0970 -0.6612 -0.7439
vn -0.2561 0.7592 0.5983
vn 0.9814 0.1187 -0.1508
vn -0.9688 0.1923 -0.1562
vn 0.9648 0.0618 0.2555
vn -0.0869 0.9935 -0.0733
usemtl TREE
s off
f 1/1/1 2/2/1 4/3/1 3/4/1
f 3/5/2 4/6/2 8/7/2 7/8/2
f 7/9/3 8/10/3 6/11/3 5/12/3
f 5/13/4 6/14/4 2/15/4 1/16/4
f 3/17/5 7/18/5 5/19/5 1/20/5
f 8/7/6 4/6/6 10/21/6 11/22/6
f 12/23/7 11/24/7 15/25/7 16/26/7 18/27/7
f 6/11/8 8/10/8 11/24/8 12/23/8
f 4/3/9 2/2/9 9/28/9 10/29/9
f 2/15/10 6/14/10 12/30/10 9/31/10
f 13/32/11 16/33/11 42/34/11 41/35/11
f 10/29/12 9/28/12 17/36/12 13/37/12 14/38/12
f 9/39/13 12/40/13 19/41/13 20/42/13
f 11/22/14 10/21/14 14/43/14 15/44/14
f 31/45/15 15/25/15 34/46/15 35/47/15
f 17/48/16 18/49/16 16/33/16 13/32/16
f 21/50/17 22/51/17 26/52/17 25/53/17
f 18/54/18 17/55/18 22/51/18 21/50/18
f 12/23/19 18/27/19 21/56/19 19/57/19
f 17/36/20 9/28/20 20/58/20 22/59/20
f 23/60/21 25/61/21 29/62/21 27/63/21
f 19/57/22 21/56/22 25/61/22 23/60/22
f 22/59/23 20/58/23 24/64/23 26/65/23
f 20/42/24 19/41/24 23/66/24 24/67/24
f 28/68/25 27/69/25 29/70/25 30/71/25
f 26/65/26 24/64/26 28/72/26 30/73/26
f 24/67/27 23/66/27 27/74/27 28/75/27
f 25/53/28 26/52/28 30/76/28 29/77/28
f 33/78/29 36/79/29 40/80/29 37/81/29
f 14/38/30 32/82/30 36/79/30 33/78/30
f 15/83/31 14/84/31 33/85/31 34/86/31
f 32/87/32 31/88/32 35/89/32 36/90/32
f 38/91/33 37/92/33 40/93/33 39/94/33
f 34/95/34 33/96/34 37/92/34 38/91/34
f 36/90/35 35/89/35 39/97/35 40/98/35
f 35/47/36 34/46/36 38/99/36 39/100/36
f 13/37/37 41/101/37 32/82/37 14/38/37
f 16/26/38 15/25/38 31/45/38 42/102/38
f 32/87/39 41/103/39 42/104/39 31/88/39
o Icosphere.001
v -0.408356 1.697996 1.388896
v 0.278146 2.150125 1.853150
v -1.002442 2.243642 2.466300
v -1.397955 2.414989 1.271775
v -0.865603 2.414986 0.539061
v 0.342851 2.354717 0.831821
v -0.036253 3.343750 2.201900
v -1.234041 3.444517 1.967158
v -1.156464 3.291152 0.966781
v -0.083093 3.375209 0.611164
v 0.591442 3.543279 1.350698
v -0.628235 4.155554 1.439757
v -0.583556 1.852215 1.915183
v 0.056484 1.777044 1.570870
v -0.217199 2.132085 2.181357
v 0.425160 2.081559 1.306800
v 0.056484 1.777044 1.038531
v -0.926114 1.951076 1.221010
v -1.307609 2.386833 1.986412
v -0.613205 1.951074 0.790335
v -1.220311 2.347355 0.841098
v -0.152494 2.336678 0.672005
v 0.655374 2.541506 1.555967
v 0.538768 2.739933 1.018488
v -0.737255 2.834386 2.572802
v 0.206395 2.592034 2.164357
v -1.446735 2.800202 1.537945
v -1.360223 2.949861 2.365549
v -1.133827 2.800202 0.574922
v -1.446735 2.800202 1.005604
v 0.127375 2.789526 0.672001
v -0.378918 2.789526 0.507496
v 0.261360 3.667331 1.875397
v -1.119482 3.564617 2.482881
v -1.267434 3.519756 1.443443
v -0.759604 3.358784 0.722770
v 0.271616 3.442840 0.913201
v -0.278115 3.684152 1.916865
v 0.130138 3.883681 1.367702
v -1.195028 3.844661 1.844760
v -0.899535 3.638654 1.153449
v -0.181229 3.722711 0.913202
vt 0.752051 0.881553
vt 0.744615 0.894432
vt 0.759486 0.894432
vt 0.737179 0.907312
vt 0.729743 0.894432
vt 0.722307 0.907312
vt 0.633078 0.881553
vt 0.625642 0.894432
vt 0.640513 0.894432
vt 0.662821 0.881553
vt 0.655385 0.894432
vt 0.670257 0.894432
vt 0.692564 0.881553
vt 0.685128 0.894432
vt 0.700000 0.894432
vt 0.729743 0.920191
vt 0.766922 0.907312
vt 0.752051 0.907312
vt 0.759486 0.920191
vt 0.647949 0.907312
vt 0.633078 0.907312
vt 0.640513 0.920191
vt 0.677692 0.907312
vt 0.662821 0.907312
vt 0.670257 0.920191
vt 0.707436 0.907312
vt 0.692564 0.907312
vt 0.700000 0.920191
vt 0.744615 0.920191
vt 0.774358 0.920191
vt 0.655385 0.920191
vt 0.685128 0.920191
vt 0.714872 0.920191
vt 0.752051 0.933070
vt 0.737179 0.933070
vt 0.744615 0.945950
vt 0.781794 0.933070
vt 0.766922 0.933070
vt 0.774358 0.945950
vt 0.662821 0.933070
vt 0.647949 0.933070
vt 0.655385 0.945950
vt 0.692564 0.933070
vt 0.677692 0.933070
vt 0.685128 0.945950
vt 0.722307 0.933070
vt 0.707436 0.933070
vt 0.714872 0.945950
vt 0.700000 0.945950
vt 0.707436 0.958829
vt 0.670257 0.945950
vt 0.677692 0.958829
vt 0.640513 0.945950
vt 0.647949 0.958829
vt 0.633078 0.933070
vt 0.759486 0.945950
vt 0.766922 0.958829
vt 0.729743 0.945950
vt 0.737179 0.958829
vt 0.625642 0.920191
vt 0.618206 0.907312
vt 0.714872 0.894432
vt 0.722307 0.881553
vn 0.0467 -0.9543 0.2952
vn 0.7215 -0.6359 0.2739
vn -0.4637 -0.8799 0.1035
vn -0.3554 -0.8983 -0.2582
vn -0.1097 -0.9284 -0.3550
vn 0.7887 -0.5469 0.2809
vn 0.2889 -0.2939 0.9111
vn -0.9725 -0.2026 0.1150
vn -0.5746 -0.3304 -0.7488
vn 0.3077 -0.1902 -0.9323
vn 0.7589 -0.2880 0.5840
vn -0.3201 -0.0271 0.9470
vn -0.9921 -0.1256 0.0000
vn -0.0885 0.0311 -0.9956
vn 0.6465 0.0404 -0.7618
vn 0.0776 0.6719 0.7366
vn -0.9720 0.1501 0.1809
vn -0.5791 0.6743 -0.4582
vn -0.1417 0.6263 -0.7666
vn 0.4943 0.6958 -0.5211
vn 0.2568 0.8421 -0.4742
vn 0.4385 0.7095 -0.5517
vn 0.4089 0.6617 -0.6284
vn -0.3184 0.5817 -0.7485
vn -0.2847 0.7589 -0.5857
vn -0.4713 0.6617 -0.5831
vn -0.6564 0.5987 -0.4590
vn -0.5752 0.6834 -0.4495
vn -0.9894 0.1211 0.0805
vn 0.0761 0.7366 0.6720
vn 0.1296 0.9135 0.3856
vn 0.3072 0.7297 0.6108
vn 0.3304 0.7813 0.5295
vn 0.0579 0.9237 0.3787
vn 0.5880 0.7877 0.1837
vn 0.7683 0.2010 -0.6078
vn 0.6478 0.1339 -0.7500
vn 0.6253 0.1450 -0.7668
vn -0.1635 0.2514 -0.9540
vn -0.0804 0.3051 -0.9489
vn -0.5095 0.5223 -0.6838
vn -0.8027 0.4430 -0.3993
vn -0.9703 0.2418 0.0000
vn -0.9626 0.2527 0.0977
vn -0.9316 0.3404 0.1276
vn -0.3241 -0.0533 0.9445
vn 0.2925 0.2662 0.9185
vn 0.6393 0.1689 0.7502
vn 0.8038 0.1157 0.5836
vn 0.8523 0.1567 0.4991
vn 0.3090 0.0123 -0.9510
vn 0.3035 -0.1876 -0.9342
vn 0.1475 -0.2718 -0.9510
vn -0.7427 0.3965 -0.5396
vn -0.7947 -0.1876 -0.5773
vn -0.8897 -0.3304 -0.3151
vn -0.9577 0.2836 0.0488
vn -0.9741 -0.1817 0.1347
vn -0.8319 -0.3614 0.4212
vn 0.4147 0.0886 0.9056
vn 0.3247 -0.2655 0.9078
vn 0.5072 -0.4397 0.7413
vn 0.9786 0.0205 -0.2047
vn 0.9076 -0.2897 -0.3039
vn 0.8970 -0.2979 -0.3267
vn 0.2894 -0.4465 -0.8467
vn 0.1892 -0.4876 -0.8523
vn 0.1214 -0.4209 -0.8990
vn -0.4481 -0.6018 -0.6610
vn -0.5272 -0.7586 -0.3830
vn -0.6994 -0.6917 -0.1799
vn -0.6965 -0.7150 0.0599
vn -0.5746 -0.8007 0.1695
vn -0.5807 -0.8037 0.1295
vn 0.7400 -0.5196 -0.4271
vn 0.6368 -0.7710 0.0000
vn 0.1676 -0.9858 0.0000
vn 0.1219 -0.7631 0.6346
vn 0.2067 -0.8027 0.5595
vn 0.4157 -0.6928 0.5893
usemtl TREE
s off
f 43/105/40 56/106/40 55/107/40
f 44/108/41 56/109/41 58/110/41
f 43/111/42 55/112/42 60/113/42
f 43/114/43 60/115/43 62/116/43
f 43/117/44 62/118/44 59/119/44
f 44/108/45 58/110/45 65/120/45
f 45/121/46 57/122/46 67/123/46
f 46/124/47 61/125/47 69/126/47
f 47/127/48 63/128/48 71/129/48
f 48/130/49 64/131/49 73/132/49
f 44/108/50 65/120/50 68/133/50
f 45/121/51 67/123/51 70/134/51
f 46/124/52 69/126/52 72/135/52
f 47/127/53 71/129/53 74/136/53
f 48/130/54 73/132/54 66/137/54
f 49/138/55 75/139/55 80/140/55
f 50/141/56 76/142/56 82/143/56
f 51/144/57 77/145/57 83/146/57
f 52/147/58 78/148/58 84/149/58
f 53/150/59 79/151/59 81/152/59
f 81/152/60 84/153/60 54/154/60
f 81/152/61 79/151/61 84/153/61
f 79/151/62 52/147/62 84/153/62
f 84/149/63 83/155/63 54/156/63
f 84/149/64 78/148/64 83/155/64
f 78/148/65 51/144/65 83/155/65
f 83/146/66 82/157/66 54/158/66
f 83/146/67 77/145/67 82/157/67
f 77/145/68 50/159/68 82/157/68
f 82/143/69 80/160/69 54/161/69
f 82/143/70 76/142/70 80/160/70
f 76/142/71 49/138/71 80/160/71
f 80/140/72 81/162/72 54/163/72
f 80/140/73 75/139/73 81/162/73
f 75/139/74 53/150/74 81/162/74
f 66/137/75 79/151/75 53/150/75
f 66/137/76 73/132/76 79/151/76
f 73/132/77 52/147/77 79/151/77
f 74/136/78 78/148/78 52/147/78
f 74/136/79 71/129/79 78/148/79
f 71/129/80 51/144/80 78/148/80
f 72/135/81 77/145/81 51/144/81
f 72/135/82 69/126/82 77/145/82
f 69/126/83 50/159/83 77/145/83
f 70/134/84 76/142/84 50/141/84
f 70/134/85 67/123/85 76/142/85
f 67/123/86 49/138/86 76/142/86
f 68/133/87 75/139/87 49/138/87
f 68/133/88 65/120/88 75/139/88
f 65/120/89 53/150/89 75/139/89
f 73/132/90 74/136/90 52/147/90
f 73/132/91 64/131/91 74/136/91
f 64/131/92 47/127/92 74/136/92
f 71/129/93 72/135/93 51/144/93
f 71/129/94 63/128/94 72/135/94
f 63/128/95 46/124/95 72/135/95
f 69/126/96 70/164/96 50/159/96
f 69/126/97 61/125/97 70/164/97
f 61/125/98 45/165/98 70/164/98
f 67/123/99 68/133/99 49/138/99
f 67/123/100 57/122/100 68/133/100
f 57/122/101 44/108/101 68/133/101
f 65/120/102 66/137/102 53/150/102
f 65/120/103 58/110/103 66/137/103
f 58/110/104 48/130/104 66/137/104
f 59/119/105 64/131/105 48/130/105
f 59/119/106 62/118/106 64/131/106
f 62/118/107 47/127/107 64/131/107
f 62/116/108 63/128/108 47/127/108
f 62/116/109 60/115/109 63/128/109
f 60/115/110 46/124/110 63/128/110
f 60/113/111 61/125/111 46/124/111
f 60/113/112 55/112/112 61/125/112
f 55/112/113 45/165/113 61/125/113
f 58/110/114 59/166/114 48/130/114
f 58/110/115 56/109/115 59/166/115
f 56/109/116 43/167/116 59/166/116
f 55/107/117 57/122/117 45/121/117
f 55/107/118 56/106/118 57/122/118
f 56/106/119 44/108/119 57/122/119
o Icosphere.002
v 0.059529 2.867738 -0.680954
v 0.832667 3.773395 0.267744
v -0.256089 3.578755 0.260644
v -1.077527 3.596852 -0.590211
v -0.248960 3.484722 -1.630403
v 0.919476 3.220824 -1.409150
v 0.333504 4.771720 0.630407
v -0.886868 4.595173 -0.003424
v -0.923881 4.615266 -1.337377
v 0.122199 4.874571 -2.004406
v 1.146826 4.956338 -0.961767
v -0.017661 5.453370 -0.993172
v -0.128923 3.128463 -0.130737
v 0.579418 2.864565 -0.485313
v 0.318415 3.685757 0.583933
v 1.054144 3.227222 -0.830215
v 0.586547 2.770532 -1.167265
v -0.534391 3.128466 -0.688805
v -0.847337 3.509212 -0.032141
v -0.121795 3.034430 -1.239022
v -0.708591 3.397086 -1.239024
v 0.405224 3.133186 -1.725339
v 1.305005 4.128615 -0.084144
v 1.166216 3.814020 -1.175119
v 0.025015 4.272558 0.797104
v 0.681070 4.272558 0.583939
v -1.140737 4.096010 -0.245307
v -0.603654 4.077919 0.214176
v -0.772284 4.116103 -1.653571
v -1.309366 4.134195 -0.996899
v 0.638395 4.337223 -1.896154
v -0.186290 4.375408 -2.171103
v 0.959310 4.979312 0.270433
v -0.400003 4.877450 0.682528
v -1.028664 4.682809 -0.590211
v -0.479690 4.962208 -1.957932
v 0.750460 4.924022 -1.551242
v 0.206339 5.222013 0.239025
v 0.569131 5.286675 -0.993172
v -0.422322 5.027373 -0.343903
v -0.661013 5.324863 -1.399859
v 0.163664 5.286678 -1.551240
vt 0.732334 0.838776
vt 0.719742 0.860586
vt 0.744926 0.860586
vt 0.707150 0.882397
vt 0.694558 0.860586
vt 0.681966 0.882397
vt 0.650482 0.848745
vt 0.637890 0.870555
vt 0.663074 0.870555
vt 0.700850 0.848745
vt 0.688258 0.870555
vt 0.713442 0.870555
vt 0.751218 0.848745
vt 0.738626 0.870555
vt 0.644190 0.860586
vt 0.694558 0.904207
vt 0.757518 0.882397
vt 0.732334 0.882397
vt 0.744926 0.904207
vt 0.675666 0.892365
vt 0.650482 0.892365
vt 0.663074 0.914175
vt 0.726034 0.892365
vt 0.700850 0.892365
vt 0.713442 0.914175
vt 0.656782 0.882397
vt 0.751218 0.892365
vt 0.644190 0.904207
vt 0.719742 0.904207
vt 0.770110 0.904207
vt 0.688258 0.914175
vt 0.738626 0.914175
vt 0.669374 0.904207
vt 0.732334 0.926017
vt 0.707150 0.926017
vt 0.719742 0.947827
vt 0.782702 0.926017
vt 0.757518 0.926017
vt 0.770110 0.947827
vt 0.700850 0.935985
vt 0.675666 0.935985
vt 0.688258 0.957796
vt 0.751218 0.935985
vt 0.726034 0.935985
vt 0.738626 0.957796
vt 0.681966 0.926017
vt 0.656782 0.926017
vt 0.669374 0.947827
vt 0.644190 0.947827
vt 0.656782 0.969637
vt 0.713442 0.957796
vt 0.726034 0.979606
vt 0.663074 0.957796
vt 0.675666 0.979606
vt 0.650482 0.935985
vt 0.744926 0.947827
vt 0.757518 0.969637
vt 0.694558 0.947827
vt 0.707150 0.969637
vt 0.637890 0.914175
vt 0.625298 0.892365
vt 0.669374 0.860586
vt 0.681966 0.838776
vn -0.1490 -0.9124 0.3813
vn 0.7235 -0.5487 0.4189
vn -0.3887 -0.8770 0.2824
vn -0.3963 -0.9070 -0.1422
vn -0.3288 -0.9289 -0.1706
vn 0.7241 -0.5481 0.4187
vn -0.3634 -0.4732 0.8025
vn -0.8897 -0.3304 0.3151
vn -0.5232 -0.4600 -0.7174
vn 0.5379 -0.2196 -0.8139
vn 0.6864 -0.2288 0.6903
vn -0.5822 -0.3365 0.7402
vn -0.9456 -0.2573 0.1991
vn -0.4838 -0.4290 -0.7628
vn 0.7771 -0.0768 -0.6246
vn 0.1874 0.6740 0.7146
vn -0.6246 0.7707 0.1262
vn -0.9301 0.3304 -0.1603
vn 0.0551 0.7362 -0.6745
vn 0.4771 0.7997 -0.3646
vn 0.2680 0.9435 -0.1947
vn 0.4911 0.7947 -0.3568
vn 0.4062 0.6572 -0.6349
vn -0.0087 0.9574 -0.2888
vn -0.0642 0.8271 -0.5583
vn -0.8479 0.2742 -0.4537
vn -0.3808 0.8639 0.3295
vn -0.5652 0.7518 0.3396
vn -0.5535 0.7937 0.2523
vn -0.4874 0.8378 0.2459
vn -0.4094 0.9014 0.1406
vn 0.1484 0.6723 0.7253
vn 0.2710 0.9538 0.1298
vn 0.2987 0.9444 0.1375
vn 0.4931 0.8680 0.0589
vn 0.8210 0.1183 -0.5585
vn 0.8450 0.1417 -0.5157
vn 0.5290 0.3527 -0.7719
vn -0.0247 0.3304 -0.9435
vn -0.6490 -0.0487 -0.7592
vn -0.8334 0.0921 -0.5450
vn -0.8233 0.5432 -0.1646
vn -0.9249 0.3078 0.2232
vn -0.9050 0.3304 0.2680
vn -0.7714 -0.1637 0.6149
vn -0.6036 -0.2829 0.7454
vn 0.1052 0.2559 0.9610
vn 0.4310 0.2186 0.8754
vn 0.7322 0.0138 0.6809
vn 0.9363 0.3236 0.1365
vn 0.3190 0.1170 -0.9405
vn 0.3025 -0.1911 -0.9338
vn -0.3663 -0.4639 -0.8066
vn -0.7611 0.1661 -0.6270
vn -0.7164 -0.3950 -0.5751
vn -0.7873 -0.5503 -0.2782
vn -0.6504 -0.0369 0.7587
vn -0.6502 -0.0497 0.7581
vn -0.4146 -0.2062 0.8863
vn 0.3066 0.1256 0.9435
vn 0.3035 -0.1876 0.9342
vn 0.5346 -0.3304 0.7779
vn 0.9895 0.0426 -0.1382
vn 0.9734 -0.2212 -0.0600
vn 0.9291 -0.3025 -0.2128
vn 0.4713 -0.6617 -0.5831
vn -0.2681 -0.8453 -0.4622
vn -0.4415 -0.6564 -0.6117
vn -0.4089 -0.6617 -0.6284
vn -0.5102 -0.8255 -0.2415
vn -0.6612 -0.7352 -0.1496
vn -0.6318 -0.7622 0.1409
vn -0.4140 -0.8591 0.3008
vn -0.2626 -0.6742 0.6903
vn 0.7478 -0.6426 -0.1669
vn 0.6527 -0.7496 0.1102
vn -0.0571 -0.9891 0.1358
vn -0.2628 -0.6742 0.6902
vn 0.0107 -0.7918 0.6107
vn 0.4802 -0.6351 0.6050
usemtl TREE
s off
f 85/168/120 98/169/120 97/170/120
f 86/171/121 98/172/121 100/173/121
f 85/174/122 97/175/122 102/176/122
f 85/177/123 102/178/123 104/179/123
f 85/180/124 104/181/124 101/182/124
f 86/171/125 100/173/125 107/183/125
f 87/184/126 99/185/126 109/186/126
f 88/187/127 103/188/127 111/189/127
f 89/190/128 105/191/128 113/192/128
f 90/193/129 106/194/129 115/195/129
f 86/171/130 107/183/130 110/196/130
f 87/184/131 109/186/131 112/197/131
f 88/187/132 111/189/132 114/198/132
f 89/190/133 113/192/133 116/199/133
f 90/193/134 115/195/134 108/200/134
f 91/201/135 117/202/135 122/203/135
f 92/204/136 118/205/136 124/206/136
f 93/207/137 119/208/137 125/209/137
f 94/210/138 120/211/138 126/212/138
f 95/213/139 121/214/139 123/215/139
f 123/215/140 126/216/140 96/217/140
f 123/215/141 121/214/141 126/216/141
f 121/214/142 94/210/142 126/216/142
f 126/212/143 125/218/143 96/219/143
f 126/212/144 120/211/144 125/218/144
f 120/211/145 93/207/145 125/218/145
f 125/209/146 124/220/146 96/221/146
f 125/209/147 119/208/147 124/220/147
f 119/208/148 92/222/148 124/220/148
f 124/206/149 122/223/149 96/224/149
f 124/206/150 118/205/150 122/223/150
f 118/205/151 91/201/151 122/223/151
f 122/203/152 123/225/152 96/226/152
f 122/203/153 117/202/153 123/225/153
f 117/202/154 95/213/154 123/225/154
f 108/200/155 121/214/155 95/213/155
f 108/200/156 115/195/156 121/214/156
f 115/195/157 94/210/157 121/214/157
f 116/199/158 120/211/158 94/210/158
f 116/199/159 113/192/159 120/211/159
f 113/192/160 93/207/160 120/211/160
f 114/198/161 119/208/161 93/207/161
f 114/198/162 111/189/162 119/208/162
f 111/189/163 92/222/163 119/208/163
f 112/197/164 118/205/164 92/204/164
f 112/197/165 109/186/165 118/205/165
f 109/186/166 91/201/166 118/205/166
f 110/196/167 117/202/167 91/201/167
f 110/196/168 107/183/168 117/202/168
f 107/183/169 95/213/169 117/202/169
f 115/195/170 116/199/170 94/210/170
f 115/195/171 106/194/171 116/199/171
f 106/194/172 89/190/172 116/199/172
f 113/192/173 114/198/173 93/207/173
f 113/192/174 105/191/174 114/198/174
f 105/191/175 88/187/175 114/198/175
f 111/189/176 112/227/176 92/222/176
f 111/189/177 103/188/177 112/227/177
f 103/188/178 87/228/178 112/227/178
f 109/186/179 110/196/179 91/201/179
f 109/186/180 99/185/180 110/196/180
f 99/185/181 86/171/181 110/196/181
f 107/183/182 108/200/182 95/213/182
f 107/183/183 100/173/183 108/200/183
f 100/173/184 90/193/184 108/200/184
f 101/182/185 106/194/185 90/193/185
f 101/182/186 104/181/186 106/194/186
f 104/181/187 89/190/187 106/194/187
f 104/179/188 105/191/188 89/190/188
f 104/179/189 102/178/189 105/191/189
f 102/178/190 88/187/190 105/191/190
f 102/176/191 103/188/191 88/187/191
f 102/176/192 97/175/192 103/188/192
f 97/175/193 87/228/193 103/188/193
f 100/173/194 101/229/194 90/193/194
f 100/173/195 98/172/195 101/229/195
f 98/172/196 85/230/196 101/229/196
f 97/170/197 99/185/197 87/184/197
f 97/170/198 98/169/198 99/185/198
f 98/169/199 86/171/199 99/185/199
